SplineFontDB: 3.0
FontName: Museo-500
FullName: Museo 500
FamilyName: Museo 500
Weight: Medium
Copyright: Copyright (c) 2008 by Jos Buivenga/exljbris. All rights reserved.
Version: 001.001
ItalicAngle: 0
UnderlinePosition: -50
UnderlineWidth: 50
Ascent: 750
Descent: 250
sfntRevision: 0x00020083
LayerCount: 2
Layer: 0 0 "Back"  1
Layer: 1 0 "Fore"  0
NeedsXUIDChange: 1
XUID: [1021 186 20670 31899]
FSType: 0
OS2Version: 2
OS2_WeightWidthSlopeOnly: 0
OS2_UseTypoMetrics: 1
CreationTime: 1215175984
ModificationTime: 1369604802
PfmFamily: 17
TTFWeight: 400
TTFWidth: 5
LineGap: 0
VLineGap: 0
Panose: 2 0 0 0 0 0 0 0 0 0
OS2TypoAscent: 0
OS2TypoAOffset: 1
OS2TypoDescent: 0
OS2TypoDOffset: 1
OS2TypoLinegap: 200
OS2WinAscent: 48
OS2WinAOffset: 1
OS2WinDescent: 23
OS2WinDOffset: 1
HheadAscent: 48
HheadAOffset: 1
HheadDescent: -23
HheadDOffset: 1
OS2SubXSize: 700
OS2SubYSize: 650
OS2SubXOff: 0
OS2SubYOff: 140
OS2SupXSize: 700
OS2SupYSize: 650
OS2SupXOff: 0
OS2SupYOff: 477
OS2StrikeYSize: 50
OS2StrikeYPos: 250
OS2Vendor: 'xljb'
OS2CodePages: 20000093.00000000
OS2UnicodeRanges: a00000af.4000004a.00000000.00000000
Lookup: 1 0 0 "'case' Case-Sensitive Forms in Latin lookup 0"  {"'case' Case-Sensitive Forms in Latin lookup 0 subtable"  } ['case' ('latn' <'dflt' > ) ]
Lookup: 4 0 1 "'liga' Standard Ligatures in Latin lookup 1"  {"'liga' Standard Ligatures in Latin lookup 1 subtable"  } ['liga' ('latn' <'dflt' > ) ]
Lookup: 6 0 0 "'salt' Stylistic Alternatives in Latin lookup 2"  {"'salt' Stylistic Alternatives in Latin lookup 2 contextual 0"  "'salt' Stylistic Alternatives in Latin lookup 2 contextual 1"  } ['salt' ('latn' <'dflt' > ) ]
Lookup: 6 0 0 "'ss01' Style Set 1 in Latin lookup 3"  {"'ss01' Style Set 1 in Latin lookup 3 subtable"  } ['ss01' ('latn' <'dflt' > ) ]
Lookup: 6 0 0 "'ss02' Style Set 2 in Latin lookup 4"  {"'ss02' Style Set 2 in Latin lookup 4 subtable"  } ['ss02' ('latn' <'dflt' > ) ]

StartChar: exclam
Encoding: 33 33 1
Width: 314
Flags: MW
HStem: 0 97<108 207 108 207> 686 20G<107 207 207 207>
VStem: 108 99<0 97 0 97> 110 93
LayerCount: 2
Fore
SplineSet
114 194 m 1xd0
 107 706 l 1
 207 706 l 1
 201 194 l 1
 114 194 l 1xd0
108 0 m 1xe0
 108 97 l 1
 207 97 l 1
 207 0 l 1
 108 0 l 1xe0
EndSplineSet
EndChar

StartChar: quotedbl
Encoding: 34 34 2
Width: 340
Flags: MW
HStem: 530 188<62 138 62 138 62 202 202 278>
VStem: 62 76<530 718 530 718> 202 76<530 718 530 718>
LayerCount: 2
Fore
SplineSet
202 530 m 1
 202 718 l 1
 278 718 l 1
 278 530 l 1
 202 530 l 1
62 530 m 1
 62 718 l 1
 138 718 l 1
 138 530 l 1
 62 530 l 1
EndSplineSet
EndChar

StartChar: numbersign
Encoding: 35 35 3
Width: 706
Flags: MW
HStem: 0 21G<134 134 134 215 370 370 370 451> 191 74<49 167 37 180 49 248 261 403 497 614> 433 73<92 209 80 222 92 291 303 446 539 657> 686 20G<257 338 338 338 493 574 574 574>
VStem: 37 633<191 506>
LayerCount: 2
Fore
SplineSet
134 0 m 1
 167 191 l 1
 37 191 l 1
 49 265 l 1
 180 265 l 1
 209 433 l 1
 80 433 l 1
 92 506 l 1
 222 506 l 1
 257 706 l 1
 338 706 l 1
 303 506 l 1
 458 506 l 1
 493 706 l 1
 574 706 l 1
 539 506 l 1
 670 506 l 1
 657 433 l 1
 527 433 l 1
 497 265 l 1
 627 265 l 1
 614 191 l 1
 485 191 l 1
 451 0 l 1
 370 0 l 1
 403 191 l 1
 248 191 l 1
 215 0 l 1
 134 0 l 1
261 265 m 1
 416 265 l 1
 446 433 l 1
 291 433 l 1
 261 265 l 1
EndSplineSet
EndChar

StartChar: dollar
Encoding: 36 36 4
Width: 546
Flags: MW
HStem: -102 181<248 320 227.5 321 248 248> -10 21G<248 248> -10 89<248 248> -9 21G<321 321> 627 89<252 321> 627 182<252 318> 695 20G<248 248> 696 20G<321 321>
VStem: 64 102<462 561.5 462 581.5> 248 73<-102 -10 -10 -10 716 809> 394 92<530 563 563 581.5> 405 101<153.5 258.5>
LayerCount: 2
Fore
SplineSet
42 125 m 1x11d0
 113 184 l 1
 113 184 171 79 284 79 c 0
 356 79 405 123 405 184 c 0
 405 333 64 307 64 535 c 0
 64 628 139 700 248 715 c 1x22d0
 248 809 l 1
 321 809 l 1x14d0
 321 716 l 1
 392 708 486 673 486 588 c 2
 486 530 l 1
 394 530 l 1
 394 563 l 2x18e0
 394 600 346 627 290 627 c 0
 214 627 166 587 166 536 c 0
 166 388 506 425 506 187 c 0
 506 91 435 5 321 -9 c 1x18d0
 321 -102 l 1
 248 -102 l 1x81d0
 248 -10 l 1x41d0
 105 7 42 125 42 125 c 1x11d0
EndSplineSet
EndChar

StartChar: percent
Encoding: 37 37 5
Width: 783
Flags: MW
HStem: -12 74<552 593.5 552 614.5> 0 21G<74 74 74 168> 211 73<552 593.5> 422 74<189 231 189 252> 645 73<189 231> 686 20G<614 708 708 708>
VStem: 59 77<549 590.5 549 610.5> 284 78<549 590.5> 421 78<115 156.5 115 176.5> 647 78<115 156.5>
LayerCount: 2
Fore
SplineSet
210 422 m 0xbbc0
 126 422 59 488 59 570 c 0
 59 651 126 718 210 718 c 0
 294 718 362 651 362 570 c 0
 362 488 294 422 210 422 c 0xbbc0
74 0 m 1
 614 706 l 1
 708 706 l 1
 168 0 l 1
 74 0 l 1
210 496 m 0
 252 496 284 528 284 570 c 0
 284 611 252 645 210 645 c 0
 168 645 136 611 136 570 c 0
 136 528 168 496 210 496 c 0
421 136 m 0
 421 217 488 284 573 284 c 0
 656 284 725 217 725 136 c 0
 725 54 656 -12 573 -12 c 0
 488 -12 421 54 421 136 c 0
499 136 m 0
 499 94 531 62 573 62 c 0
 614 62 647 94 647 136 c 0
 647 177 614 211 573 211 c 0x77c0
 531 211 499 177 499 136 c 0
EndSplineSet
EndChar

StartChar: ampersand
Encoding: 38 38 6
Width: 638
Flags: MW
HStem: -12 91<244 332.5 244 363> 329 86<305 306 306 432 529 618> 329 177<254.5 529 306 529 432 618 432 529> 635 83<261.5 310> 687 20G<376 376>
VStem: 44 101<169.5 238.5> 75 100<504 557.5 504 590.5> 432 97<239 329 156.5 329 415 506>
LayerCount: 2
Fore
SplineSet
44 202 m 0xb5
 44 275 87 355 166 378 c 1
 166 380 l 1
 166 380 75 413 75 536 c 0
 75 645 160 718 287 718 c 0xb3
 333 718 376 707 376 707 c 1xad
 351 628 l 1
 351 628 322 635 298 635 c 0
 225 635 175 589 175 526 c 0
 175 482 196 415 305 415 c 2
 432 415 l 1xd3
 432 506 l 1
 529 506 l 1xb5
 529 415 l 1
 618 415 l 1xd5
 618 329 l 1
 529 329 l 1
 529 235 l 2
 529 78 437 -12 289 -12 c 0
 145 -12 44 81 44 202 c 0xb5
145 203 m 0
 145 136 199 79 289 79 c 0
 376 79 432 128 432 239 c 2
 432 329 l 1
 306 329 l 2
 203 329 145 282 145 203 c 0
EndSplineSet
EndChar

StartChar: quotesingle
Encoding: 39 39 7
Width: 201
Flags: MW
HStem: 530 188<62 139 62 139>
VStem: 62 77<530 718 530 718>
LayerCount: 2
Fore
SplineSet
62 530 m 1
 62 718 l 1
 139 718 l 1
 139 530 l 1
 62 530 l 1
EndSplineSet
EndChar

StartChar: parenleft
Encoding: 40 40 8
Width: 330
Flags: MW
HStem: -95 830<200 281 196 286 200 200>
VStem: 83 88<262 403.5>
LayerCount: 2
Fore
SplineSet
83 329 m 0
 83 478 120 618 196 735 c 1
 281 735 l 1
 207 611 171 478 171 336 c 0
 171 188 210 38 286 -95 c 1
 200 -95 l 1
 125 22 83 175 83 329 c 0
EndSplineSet
Substitution2: "'case' Case-Sensitive Forms in Latin lookup 0 subtable" parenleft.case
EndChar

StartChar: parenright
Encoding: 41 41 9
Width: 330
Flags: MW
HStem: -95 830<44 134 49 130>
VStem: 159 88<262 403.5 252 407>
LayerCount: 2
Fore
SplineSet
44 -95 m 1
 120 38 159 188 159 336 c 0
 159 478 123 611 49 735 c 1
 134 735 l 1
 210 618 247 478 247 329 c 0
 247 175 205 22 130 -95 c 1
 44 -95 l 1
EndSplineSet
Substitution2: "'case' Case-Sensitive Forms in Latin lookup 0 subtable" parenright.case
EndChar

StartChar: asterisk
Encoding: 42 42 10
Width: 480
Flags: MW
HStem: 686 20G<194 285 285 285>
VStem: 197 83
LayerCount: 2
Fore
SplineSet
161 329 m 1
 89 381 l 1
 178 491 l 1
 178 493 l 1
 42 530 l 1
 68 614 l 1
 201 564 l 1
 194 706 l 1
 285 706 l 1
 277 564 l 1
 411 614 l 1
 438 530 l 1
 301 493 l 1
 301 491 l 1
 389 381 l 1
 318 329 l 1
 241 447 l 1
 239 447 l 1
 161 329 l 1
EndSplineSet
EndChar

StartChar: plus
Encoding: 43 43 11
Width: 613
Flags: MW
HStem: 0 21G<266 348 266 266> 246 78<42 266 42 266 348 571>
VStem: 266 82<0 246 0 246 324 570>
LayerCount: 2
Fore
SplineSet
42 246 m 1
 42 324 l 1
 266 324 l 1
 266 570 l 1
 348 570 l 1
 348 324 l 1
 571 324 l 1
 571 246 l 1
 348 246 l 1
 348 0 l 1
 266 0 l 1
 266 246 l 1
 42 246 l 1
EndSplineSet
EndChar

StartChar: comma
Encoding: 44 44 12
Width: 240
Flags: MW
HStem: -101 206<84 97 22 182>
VStem: 22 160
LayerCount: 2
Fore
SplineSet
84 105 m 1
 182 105 l 1
 97 -101 l 1
 22 -101 l 1
 84 105 l 1
EndSplineSet
EndChar

StartChar: hyphen
Encoding: 45 45 13
AltUni2: 0000ad.ffffffff.0
Width: 431
Flags: MW
HStem: 242 86<70 362 70 362>
VStem: 70 292<242 328 242 328>
LayerCount: 2
Fore
SplineSet
70 242 m 1
 70 328 l 1
 362 328 l 1
 362 242 l 1
 70 242 l 1
EndSplineSet
Substitution2: "'case' Case-Sensitive Forms in Latin lookup 0 subtable" hyphen.case
EndChar

StartChar: period
Encoding: 46 46 14
Width: 240
Flags: MW
HStem: 0 103<70 169 70 169>
VStem: 70 99<0 103 0 103>
LayerCount: 2
Fore
SplineSet
70 0 m 1
 70 103 l 1
 169 103 l 1
 169 0 l 1
 70 0 l 1
EndSplineSet
EndChar

StartChar: slash
Encoding: 47 47 15
Width: 346
Flags: MW
HStem: -42 786<1 341 1 341>
VStem: 1 340
LayerCount: 2
Fore
SplineSet
1 -42 m 1
 255 744 l 1
 341 744 l 1
 87 -42 l 1
 1 -42 l 1
EndSplineSet
EndChar

StartChar: zero
Encoding: 48 48 16
Width: 607
Flags: MW
HStem: -12 91<246 361.5 246 398> 627 91<246 361.5>
VStem: 54 101<277 430.5 277 455.5> 452 101<277 430.5>
LayerCount: 2
Fore
SplineSet
304 -12 m 0
 115 -12 54 150 54 354 c 0
 54 557 115 718 304 718 c 0
 492 718 553 557 553 354 c 0
 553 150 492 -12 304 -12 c 0
304 79 m 0
 419 79 452 200 452 354 c 0
 452 507 419 627 304 627 c 0
 188 627 155 507 155 354 c 0
 155 200 188 79 304 79 c 0
EndSplineSet
Substitution2: "'tnum' Tabular Numbers in Latin lookup 7 subtable" zero.tnum
EndChar

StartChar: one
Encoding: 49 49 17
Width: 504
Flags: MW
HStem: 0 86<64 219 64 219 319 473> 686 20G<228 319 319 319>
VStem: 219 100<86 542 542 553>
LayerCount: 2
Fore
SplineSet
64 0 m 1
 64 86 l 1
 219 86 l 1
 219 542 l 2
 219 564 220 586 220 586 c 1
 218 586 l 1
 218 586 210 570 185 545 c 2
 119 480 l 1
 59 542 l 1
 228 706 l 1
 319 706 l 1
 319 86 l 1
 473 86 l 1
 473 0 l 1
 64 0 l 1
EndSplineSet
Substitution2: "'tnum' Tabular Numbers in Latin lookup 7 subtable" one.tnum
EndChar

StartChar: two
Encoding: 50 50 18
Width: 573
Flags: MW
HStem: 0 86<77.5 417 166 417 417 424 166 467> 626 92<241.5 311>
VStem: 38 103<98 186.5 98 211> 72 92<528 559 528 588 528 634> 397 102<418.5 546.5> 439 92<108 153 41.5 153>
LayerCount: 2
Fore
SplineSet
38 81 m 0xe8
 38 341 397 323 397 514 c 0
 397 579 349 626 273 626 c 0
 210 626 164 594 164 559 c 2
 164 528 l 1
 72 528 l 1
 72 588 l 2xd8
 72 680 195 718 277 718 c 0
 406 718 499 636 499 515 c 0xe8
 499 272 141 268 141 105 c 0
 141 91 149 86 166 86 c 2
 417 86 l 2
 431 86 439 94 439 108 c 2
 439 153 l 1
 531 153 l 1
 531 64 l 2
 531 19 512 0 467 0 c 2xe4
 105 0 l 2
 50 0 38 24 38 81 c 0xe8
EndSplineSet
Substitution2: "'tnum' Tabular Numbers in Latin lookup 7 subtable" two.tnum
EndChar

StartChar: three
Encoding: 51 51 19
Width: 541
Flags: MW
HStem: -12 94<204.5 297 204.5 332.5> 337 82<197 301> 620 86<161 168 168 304>
VStem: 54 92<553 598 553 642 553 664.5> 399 102<173 250.5>
LayerCount: 2
Fore
SplineSet
26 87 m 1
 80 162 l 1
 80 162 150 82 259 82 c 0
 335 82 399 135 399 211 c 0
 399 290 329 337 247 337 c 2
 197 337 l 1
 176 390 l 1
 323 575 l 1
 344 605 364 621 364 621 c 1
 364 623 l 1
 364 623 343 620 304 620 c 2
 168 620 l 2
 154 620 146 613 146 598 c 2
 146 553 l 1
 54 553 l 1
 54 642 l 2
 54 687 70 706 115 706 c 2
 487 706 l 1
 487 643 l 1
 301 419 l 1
 393 409 501 348 501 212 c 0
 501 94 406 -12 259 -12 c 0
 112 -12 26 87 26 87 c 1
EndSplineSet
Substitution2: "'tnum' Tabular Numbers in Latin lookup 7 subtable" three.tnum
EndChar

StartChar: four
Encoding: 52 52 20
Width: 575
Flags: MW
HStem: 0 21G<349 449 349 349> 187 86<185 349 449 559> 588 118<352 354 352 352> 686 20G<335 449 449 449>
VStem: 350 99<273 516 516 532>
LayerCount: 2
Fore
SplineSet
17 187 m 1xd8
 17 251 l 1
 335 706 l 1
 449 706 l 1
 449 273 l 1
 559 273 l 1
 559 187 l 1
 449 187 l 1
 449 0 l 1
 349 0 l 1
 349 187 l 1
 17 187 l 1xd8
350 273 m 1
 350 516 l 2
 350 548 354 588 354 588 c 1
 352 588 l 1
 352 588 334 554 316 529 c 2xe8
 162 317 l 2
 144 292 125 272 125 272 c 1
 125 270 l 1
 125 270 154 273 185 273 c 2
 350 273 l 1
EndSplineSet
Substitution2: "'tnum' Tabular Numbers in Latin lookup 7 subtable" four.tnum
EndChar

StartChar: five
Encoding: 53 53 21
Width: 582
Flags: MW
HStem: -12 94<216 314.5 216 347> 367 86<245.5 300> 553 153<390 417 417 439.5 171 481 390 390> 620 86<213 220 220 368>
VStem: 422 102<183.5 267>
LayerCount: 2
Fore
SplineSet
51 87 m 1xd8
 105 160 l 1
 105 160 162 82 270 82 c 0
 359 82 422 144 422 223 c 0
 422 311 346 367 254 367 c 0
 176 367 120 331 120 331 c 1
 79 350 l 1
 107 642 l 2
 111 687 126 706 171 706 c 2
 417 706 l 2
 462 706 481 687 481 642 c 2
 481 553 l 1
 390 553 l 1xe8
 390 598 l 2
 390 613 382 620 368 620 c 2
 220 620 l 2
 206 620 200 613 198 598 c 2
 184 469 l 2
 182 447 179 432 179 432 c 1
 181 432 l 1
 181 432 219 453 272 453 c 0
 424 453 524 350 524 221 c 0
 524 97 424 -12 270 -12 c 0
 124 -12 51 87 51 87 c 1xd8
EndSplineSet
Substitution2: "'tnum' Tabular Numbers in Latin lookup 7 subtable" five.tnum
EndChar

StartChar: six
Encoding: 54 54 22
Width: 567
Flags: MW
HStem: -12 91<256 342 256 368> 370 84<275 331.5> 627 91<295.5 388>
VStem: 38 105<226 296.5 226 405> 431 98<183 266.5>
LayerCount: 2
Fore
SplineSet
302 -12 m 0
 152 -12 38 116 38 313 c 0
 38 497 137 718 356 718 c 0
 440 718 493 689 493 689 c 1
 461 604 l 1
 461 604 416 627 360 627 c 0
 231 627 163 506 148 385 c 1
 150 385 l 1
 179 428 244 454 306 454 c 0
 440 454 529 353 529 224 c 0
 529 85 434 -12 302 -12 c 0
143 271 m 0
 143 181 211 79 301 79 c 0
 383 79 431 142 431 224 c 0
 431 309 377 370 286 370 c 0
 207 370 143 322 143 271 c 0
EndSplineSet
Substitution2: "'tnum' Tabular Numbers in Latin lookup 7 subtable" six.tnum
EndChar

StartChar: seven
Encoding: 55 55 23
Width: 525
Flags: MW
HStem: 0 21G<63 63 63 174> 620 86<133 140 140 353>
VStem: 26 92<553 598 553 642 553 664.5>
LayerCount: 2
Fore
SplineSet
63 0 m 1
 363 556 l 2
 385 596 404 621 404 621 c 1
 404 623 l 1
 404 623 388 620 353 620 c 2
 140 620 l 2
 126 620 118 613 118 598 c 2
 118 553 l 1
 26 553 l 1
 26 642 l 2
 26 687 42 706 87 706 c 2
 516 706 l 1
 516 638 l 1
 174 0 l 1
 63 0 l 1
EndSplineSet
Substitution2: "'tnum' Tabular Numbers in Latin lookup 7 subtable" seven.tnum
EndChar

StartChar: eight
Encoding: 56 56 24
Width: 576
Flags: MW
HStem: -12 91<249.5 325 249.5 360> 627 91<252.5 327>
VStem: 42 101<167.5 244.5 167.5 260> 71 98<496 555 496 578> 415 97<489.5 553.5> 431 101<163 229>
LayerCount: 2
Fore
SplineSet
42 202 m 0xe8
 42 318 158 383 158 383 c 1
 158 385 l 1
 158 385 71 431 71 529 c 0
 71 627 149 718 291 718 c 0
 426 718 512 637 512 527 c 0xd8
 512 423 427 359 427 359 c 1
 427 357 l 1
 491 320 532 271 532 195 c 0xe4
 532 85 432 -12 288 -12 c 0
 155 -12 42 71 42 202 c 0xe8
285 416 m 0
 299 410 328 399 340 399 c 0
 364 399 415 458 415 521 c 0
 415 586 363 627 291 627 c 0
 214 627 169 583 169 527 c 0xd8
 169 465 222 441 285 416 c 0
143 207 m 0
 143 128 211 79 288 79 c 0
 362 79 431 128 431 198 c 0xe4
 431 260 378 287 312 314 c 0
 285 325 247 340 239 340 c 0
 214 340 143 282 143 207 c 0
EndSplineSet
Substitution2: "'tnum' Tabular Numbers in Latin lookup 7 subtable" eight.tnum
EndChar

StartChar: nine
Encoding: 57 57 25
Width: 567
Flags: MW
HStem: -12 91<179 271.5 179 320.5> 253 83<235.5 292> 627 91<225 311>
VStem: 38 98<440 523 440 551.5> 424 105<409.5 480.5>
LayerCount: 2
Fore
SplineSet
74 17 m 1
 106 103 l 1
 106 103 151 79 207 79 c 0
 336 79 404 201 419 322 c 1
 417 322 l 1
 388 278 323 253 261 253 c 0
 127 253 38 353 38 482 c 0
 38 621 133 718 265 718 c 0
 415 718 529 590 529 393 c 0
 529 209 430 -12 211 -12 c 0
 127 -12 74 17 74 17 c 1
281 336 m 0
 360 336 424 384 424 435 c 0
 424 526 356 627 266 627 c 0
 184 627 136 564 136 482 c 0
 136 398 190 336 281 336 c 0
EndSplineSet
Substitution2: "'tnum' Tabular Numbers in Latin lookup 7 subtable" nine.tnum
EndChar

StartChar: colon
Encoding: 58 58 26
Width: 294
Flags: MW
HStem: 0 103<98 197 98 197> 403 103<98 197 98 197>
VStem: 98 99<0 103 0 103 403 506>
LayerCount: 2
Fore
SplineSet
98 403 m 1
 98 506 l 1
 197 506 l 1
 197 403 l 1
 98 403 l 1
98 0 m 1
 98 103 l 1
 197 103 l 1
 197 0 l 1
 98 0 l 1
EndSplineSet
EndChar

StartChar: semicolon
Encoding: 59 59 27
Width: 294
Flags: MW
HStem: -101 206<45 193 96 120> 403 103<98 197 98 197>
VStem: 98 99<403 506 403 506>
LayerCount: 2
Fore
SplineSet
98 403 m 1
 98 506 l 1
 197 506 l 1
 197 403 l 1
 98 403 l 1
45 -101 m 1
 96 105 l 1
 193 105 l 1
 120 -101 l 1
 45 -101 l 1
EndSplineSet
EndChar

StartChar: less
Encoding: 60 60 28
Width: 613
Flags: MW
HStem: 44 482<533 533>
VStem: 67 108<284 286 284 318 284 318>
LayerCount: 2
Fore
SplineSet
67 252 m 1
 67 318 l 1
 533 526 l 1
 533 437 l 1
 175 286 l 1
 175 284 l 1
 533 133 l 1
 533 44 l 1
 67 252 l 1
EndSplineSet
EndChar

StartChar: equal
Encoding: 61 61 29
Width: 613
Flags: MW
HStem: 151 78<68 545 68 545> 340 78<68 545 68 545>
VStem: 68 477<151 229 151 229 340 418 151 418>
LayerCount: 2
Fore
SplineSet
68 340 m 1
 68 418 l 1
 545 418 l 1
 545 340 l 1
 68 340 l 1
68 151 m 1
 68 229 l 1
 545 229 l 1
 545 151 l 1
 68 151 l 1
EndSplineSet
EndChar

StartChar: greater
Encoding: 62 62 30
Width: 613
Flags: MW
HStem: 44 482<74 74>
VStem: 74 466<44 318 133 318 252 526 252 526> 431 109<284 286 286 286>
LayerCount: 2
Fore
SplineSet
74 44 m 1xc0
 74 133 l 1
 431 284 l 1
 431 286 l 1
 74 437 l 1
 74 526 l 1
 540 318 l 1
 540 252 l 1xa0
 74 44 l 1xc0
EndSplineSet
EndChar

StartChar: question
Encoding: 63 63 31
Width: 453
Flags: MW
HStem: 0 97<147 246 147 246> 629 91<173.5 238>
VStem: 149 95<194 235 194 241 194 317> 319 102<472.5 558>
LayerCount: 2
Fore
SplineSet
149 194 m 1
 149 241 l 2
 149 393 319 415 319 530 c 0
 319 586 271 629 205 629 c 0
 142 629 91 587 91 587 c 1
 37 656 l 1
 37 656 103 720 212 720 c 0
 325 720 421 648 421 537 c 0
 421 372 244 355 244 235 c 2
 244 194 l 1
 149 194 l 1
147 0 m 1
 147 97 l 1
 246 97 l 1
 246 0 l 1
 147 0 l 1
EndSplineSet
EndChar

StartChar: at
Encoding: 64 64 32
Width: 762
Flags: MW
HStem: -125 79<336 421 336 421> 52 73<401.5 572 471 572 665 737> 361 67<464 473 473 572> 531 80<332.5 461.5>
VStem: 40 97<162 319 162 344> 257 98<209.5 274.5 209.5 290.5> 572 93<125 361 361 361 125 428>
LayerCount: 2
Fore
SplineSet
40 241 m 0
 40 447 201 611 405 611 c 0
 598 611 665 514 665 408 c 2
 665 125 l 1
 737 125 l 1
 737 52 l 1
 464 52 l 2
 339 52 257 140 257 241 c 0
 257 340 338 428 464 428 c 2
 572 428 l 1
 570 485 513 531 410 531 c 0
 255 531 137 397 137 241 c 0
 137 83 251 -46 421 -46 c 1
 421 -125 l 1
 197 -125 40 37 40 241 c 0
355 242 m 0
 355 177 403 125 471 125 c 2
 572 125 l 1
 572 361 l 1
 473 361 l 2
 403 361 355 307 355 242 c 0
EndSplineSet
Substitution2: "'case' Case-Sensitive Forms in Latin lookup 0 subtable" at.case
EndChar

StartChar: A
Encoding: 65 65 33
Width: 665
Flags: MW
HStem: 0 86<12 26 12 26 26 35 12 67 639 654> 203 84<227 438 227 463 203 438> 601 105<331 333 331 331> 686 20G<280 385 385 385>
VStem: 12 642<0 86 0 86>
LayerCount: 2
Fore
SplineSet
12 0 m 1xd8
 12 86 l 1
 26 86 l 2
 44 86 53 90 59 108 c 2
 280 706 l 1
 385 706 l 1
 606 108 l 2
 612 90 622 86 639 86 c 2
 654 86 l 1
 654 0 l 1
 598 0 l 2
 548 0 532 12 516 58 c 2
 463 203 l 1
 203 203 l 1
 150 58 l 2
 133 12 117 0 67 0 c 2
 12 0 l 1xd8
227 287 m 1
 438 287 l 1
 361 502 l 2
 348 539 333 601 333 601 c 1
 331 601 l 1
 331 601 317 539 304 502 c 2xe8
 227 287 l 1
EndSplineSet
EndChar

StartChar: B
Encoding: 66 66 34
Width: 617
Flags: MW
HStem: 0 86<143.5 350 224 345> 327 82<202 340 340 350 202 340> 620 86<37 102 37 339 202 202 202 338>
VStem: 102 100<101 108 108 327 409 620> 442 102<487.5 547> 469 103<170 240.5 134.5 242>
LayerCount: 2
Fore
SplineSet
102 64 m 2xf4
 102 620 l 1
 37 620 l 1
 37 706 l 1
 339 706 l 2
 458 706 544 640 544 526 c 0xf8
 544 449 503 397 456 374 c 1
 456 372 l 1
 531 350 572 280 572 201 c 0
 572 68 470 0 345 0 c 2
 166 0 l 2
 121 0 102 19 102 64 c 2xf4
202 409 m 1
 340 409 l 2
 402 409 442 454 442 516 c 0
 442 578 404 620 338 620 c 2
 202 620 l 1
 202 409 l 1
202 108 m 2
 202 94 210 86 224 86 c 2
 350 86 l 2
 425 86 469 134 469 206 c 0xf4
 469 278 422 327 350 327 c 2
 202 327 l 1
 202 108 l 2
EndSplineSet
EndChar

StartChar: C
Encoding: 67 67 35
Width: 701
Flags: MW
HStem: -12 94<321 463 321 481> 625 93<319 425.5>
VStem: 34 104<282 438.5 282 461> 561 92<496 536 536 565 496 565.5>
LayerCount: 2
Fore
SplineSet
34 359 m 0
 34 563 186 718 388 718 c 0
 483 718 653 678 653 565 c 2
 653 496 l 1
 561 496 l 1
 561 536 l 2
 561 595 461 625 390 625 c 0
 248 625 138 518 138 359 c 0
 138 205 249 82 393 82 c 0
 533 82 616 178 616 178 c 1
 670 106 l 1
 670 106 570 -12 392 -12 c 0
 181 -12 34 151 34 359 c 0
EndSplineSet
EndChar

StartChar: D
Encoding: 68 68 36
Width: 715
Flags: MW
HStem: 0 86<144.5 317 225 317 317 324> 620 86<38 103 38 324 203 203 203 317>
VStem: 103 100<101 108 108 620> 577 104<267 440.5>
LayerCount: 2
Fore
SplineSet
103 64 m 2
 103 620 l 1
 38 620 l 1
 38 706 l 1
 324 706 l 2
 539 706 681 577 681 354 c 0
 681 130 539 0 324 0 c 2
 167 0 l 2
 122 0 103 19 103 64 c 2
203 108 m 2
 203 94 211 86 225 86 c 2
 317 86 l 2
 474 86 577 180 577 354 c 0
 577 527 473 620 317 620 c 2
 203 620 l 1
 203 108 l 2
EndSplineSet
EndChar

StartChar: E
Encoding: 69 69 37
Width: 568
Flags: MW
HStem: 0 86<144.5 431 225 431 431 438 225 481> 313 86<203 450 203 450> 620 86<38 103 38 453 203 203 203 404>
VStem: 103 100<101 108 108 313 399 620> 426 91<553 598 598 605.5> 453 92<108 153 41.5 153>
LayerCount: 2
Fore
SplineSet
103 64 m 2xf8
 103 620 l 1
 38 620 l 1
 38 706 l 1
 453 706 l 2
 498 706 517 687 517 642 c 2
 517 553 l 1
 426 553 l 1
 426 598 l 2
 426 613 418 620 404 620 c 2xf8
 203 620 l 1
 203 399 l 1
 450 399 l 1
 450 313 l 1
 203 313 l 1
 203 108 l 2
 203 94 211 86 225 86 c 2
 431 86 l 2
 445 86 453 94 453 108 c 2
 453 153 l 1
 545 153 l 1
 545 64 l 2
 545 19 526 0 481 0 c 2xf4
 167 0 l 2
 122 0 103 19 103 64 c 2xf8
EndSplineSet
EndChar

StartChar: F
Encoding: 70 70 38
Width: 513
Flags: MW
HStem: 0 21G<103 103 103 203> 302 86<203 444 203 444> 620 86<38 103 38 427 203 203 203 378>
VStem: 103 100<0 302 388 620> 400 91<553 598 598 605.5>
LayerCount: 2
Fore
SplineSet
103 0 m 1
 103 620 l 1
 38 620 l 1
 38 706 l 1
 427 706 l 2
 472 706 491 687 491 642 c 2
 491 553 l 1
 400 553 l 1
 400 598 l 2
 400 613 392 620 378 620 c 2
 203 620 l 1
 203 388 l 1
 444 388 l 1
 444 302 l 1
 203 302 l 1
 203 0 l 1
 103 0 l 1
EndSplineSet
EndChar

StartChar: G
Encoding: 71 71 39
Width: 736
Flags: MW
HStem: -12 94<323.5 449.5> 0 21G<600 688 600 600> 263 86<531 574 531 624> 626 92<322.5 451.5>
VStem: 35 104<274 434.5 274 457.5> 600 88<0 44 44 51.5>
LayerCount: 2
Fore
SplineSet
35 356 m 0xbc
 35 559 189 718 391 718 c 0
 560 718 643 631 643 631 c 1
 586 558 l 1
 586 558 510 626 393 626 c 0
 252 626 139 513 139 356 c 0
 139 192 252 82 395 82 c 0
 521 82 596 170 596 170 c 1xbc
 596 241 l 2
 596 255 588 263 574 263 c 2
 531 263 l 1
 531 349 l 1
 624 349 l 2
 669 349 688 330 688 285 c 2
 688 0 l 1
 600 0 l 1
 600 44 l 2x7c
 600 59 601 74 601 74 c 1
 599 74 l 1
 599 74 520 -12 379 -12 c 0
 191 -12 35 136 35 356 c 0xbc
EndSplineSet
EndChar

StartChar: H
Encoding: 72 72 40
Width: 765
Flags: MW
HStem: 0 21G<103 103 103 203 562 562 562 662> 310 85<203 562 203 562> 620 86<38 81 38 139 677 684 684 727>
VStem: 103 100<0 310 395 598 598 605.5> 562 100<0 310 310 310 395 598 0 642 0 664.5>
LayerCount: 2
Fore
SplineSet
103 0 m 1
 103 598 l 2
 103 613 95 620 81 620 c 2
 38 620 l 1
 38 706 l 1
 139 706 l 2
 184 706 203 687 203 642 c 2
 203 395 l 1
 562 395 l 1
 562 642 l 2
 562 687 581 706 626 706 c 2
 727 706 l 1
 727 620 l 1
 684 620 l 2
 670 620 662 613 662 598 c 2
 662 0 l 1
 562 0 l 1
 562 310 l 1
 203 310 l 1
 203 0 l 1
 103 0 l 1
EndSplineSet
EndChar

StartChar: I
Encoding: 73 73 41
Width: 317
Flags: MW
HStem: 0 86<42 111 42 111 206 275> 620 86<42 111 42 275 206 206 206 275>
VStem: 111 95<86 620 86 620>
LayerCount: 2
Fore
SplineSet
42 0 m 1
 42 86 l 1
 111 86 l 1
 111 620 l 1
 42 620 l 1
 42 706 l 1
 275 706 l 1
 275 620 l 1
 206 620 l 1
 206 86 l 1
 275 86 l 1
 275 0 l 1
 42 0 l 1
EndSplineSet
EndChar

StartChar: J
Encoding: 74 74 42
Width: 522
Flags: MW
HStem: -12 94<205.5 261 205.5 284> 620 86<148 321 148 379>
VStem: 22 100<203 211 211 238 162 238> 343 100<207 598 598 605.5>
LayerCount: 2
Fore
SplineSet
22 203 m 2
 22 238 l 1
 122 238 l 1
 122 211 l 2
 122 113 178 82 233 82 c 0
 289 82 343 115 343 207 c 2
 343 598 l 2
 343 613 335 620 321 620 c 2
 148 620 l 1
 148 706 l 1
 379 706 l 2
 424 706 443 687 443 642 c 2
 443 203 l 2
 443 50 336 -12 232 -12 c 0
 128 -12 22 51 22 203 c 2
EndSplineSet
EndChar

StartChar: K
Encoding: 75 75 43
Width: 611
Flags: MW
HStem: 0 86<518.5 601 582 601 582 601> 324 85<203 263 203 270> 620 86<38 81 38 139>
VStem: 103 100<0 324 409 598 598 605.5>
LayerCount: 2
Fore
SplineSet
103 0 m 1
 103 598 l 2
 103 613 95 620 81 620 c 2
 38 620 l 1
 38 706 l 1
 139 706 l 2
 184 706 203 687 203 642 c 2
 203 409 l 1
 270 409 l 2
 296 409 316 413 328 433 c 2
 485 706 l 1
 597 706 l 1
 426 413 l 2
 406 378 386 367 386 367 c 1
 386 365 l 1
 386 365 406 360 426 321 c 2
 532 109 l 2
 542 88 558 86 582 86 c 2
 601 86 l 1
 601 0 l 1
 546 0 l 2
 491 0 471 7 448 53 c 2
 326 298 l 2
 314 321 292 324 263 324 c 2
 203 324 l 1
 203 0 l 1
 103 0 l 1
EndSplineSet
EndChar

StartChar: L
Encoding: 76 76 44
Width: 543
Flags: MW
HStem: 0 86<144.5 420 225 420 420 427 225 469> 620 86<38 81 38 139>
VStem: 103 100<101 108 108 598 598 605.5> 442 91<108 153 41.5 153>
LayerCount: 2
Fore
SplineSet
103 64 m 2
 103 598 l 2
 103 613 95 620 81 620 c 2
 38 620 l 1
 38 706 l 1
 139 706 l 2
 184 706 203 687 203 642 c 2
 203 108 l 2
 203 94 211 86 225 86 c 2
 420 86 l 2
 434 86 442 94 442 108 c 2
 442 153 l 1
 533 153 l 1
 533 64 l 2
 533 19 514 0 469 0 c 2
 167 0 l 2
 122 0 103 19 103 64 c 2
EndSplineSet
EndChar

StartChar: M
Encoding: 77 77 45
Width: 857
Flags: MW
HStem: 0 86<20 54 20 54 54 61 20 109 804 837> 127 116<428 430 428 471 387 430> 686 20G<124 227 227 227 631 734 734 734>
VStem: 20 817<0 86 0 86>
LayerCount: 2
Fore
SplineSet
20 0 m 1
 20 86 l 1
 54 86 l 2
 68 86 75 94 76 108 c 2
 124 706 l 1
 227 706 l 1
 393 332 l 2
 410 294 428 243 428 243 c 1
 430 243 l 1
 430 243 448 294 465 332 c 2
 631 706 l 1
 734 706 l 1
 782 108 l 2
 783 94 790 86 804 86 c 2
 837 86 l 1
 837 0 l 1
 748 0 l 2
 703 0 687 19 684 64 c 2
 655 437 l 2
 652 479 653 541 653 541 c 1
 651 541 l 1
 651 541 631 475 614 437 c 2
 471 127 l 1
 387 127 l 1
 244 437 l 2
 227 474 206 542 206 542 c 1
 204 542 l 1
 204 542 205 479 202 437 c 2
 174 64 l 2
 171 19 155 0 109 0 c 2
 20 0 l 1
EndSplineSet
EndChar

StartChar: N
Encoding: 78 78 46
Width: 765
Flags: MW
HStem: 0 86<38 81 38 81 81 88 38 139> 620 86<677 684 684 727>
VStem: 103 100<108 447> 562 100<259 598 0 642 0 664.5>
LayerCount: 2
Fore
SplineSet
38 0 m 1
 38 86 l 1
 81 86 l 2
 95 86 103 94 103 108 c 2
 103 706 l 1
 194 706 l 1
 508 259 l 2
 534 221 567 163 567 163 c 1
 569 163 l 1
 569 163 562 219 562 259 c 2
 562 642 l 2
 562 687 581 706 627 706 c 2
 727 706 l 1
 727 620 l 1
 684 620 l 2
 670 620 662 613 662 598 c 2
 662 0 l 1
 572 0 l 1
 257 447 l 2
 231 485 199 543 199 543 c 1
 197 543 l 1
 197 543 203 486 203 447 c 2
 203 64 l 2
 203 19 184 0 139 0 c 2
 38 0 l 1
EndSplineSet
EndChar

StartChar: O
Encoding: 79 79 47
Width: 793
Flags: MW
HStem: -12 94<324.5 467.5 324.5 498> 625 93<324.5 467.5>
VStem: 34 104<280 433.5 280 459.5> 655 104<280 433.5>
LayerCount: 2
Fore
SplineSet
34 358 m 0
 34 561 192 718 396 718 c 0
 600 718 759 561 759 358 c 0
 759 150 600 -12 396 -12 c 0
 192 -12 34 150 34 358 c 0
138 358 m 0
 138 202 253 82 396 82 c 0
 539 82 655 202 655 358 c 0
 655 509 539 625 396 625 c 0
 253 625 138 509 138 358 c 0
EndSplineSet
EndChar

StartChar: P
Encoding: 80 80 48
Width: 592
Flags: MW
HStem: 0 21G<103 103 103 203> 261 86<203 333 333 349 203 333> 620 86<38 103 38 349 203 203 203 334>
VStem: 103 100<0 261 347 620> 467 103<442.5 527.5>
LayerCount: 2
Fore
SplineSet
103 0 m 1
 103 620 l 1
 38 620 l 1
 38 706 l 1
 349 706 l 2
 478 706 570 619 570 485 c 0
 570 351 478 261 349 261 c 2
 203 261 l 1
 203 0 l 1
 103 0 l 1
203 347 m 1
 333 347 l 2
 416 347 467 400 467 485 c 0
 467 570 416 620 334 620 c 2
 203 620 l 1
 203 347 l 1
EndSplineSet
EndChar

StartChar: Q
Encoding: 81 81 49
Width: 793
Flags: MW
HStem: -12 94<323 436.5> 624 94<323 468>
VStem: 34 104<279.5 433.5 279.5 459> 655 104<326.5 433.5>
LayerCount: 2
Fore
SplineSet
34 357 m 0
 34 561 191 718 395 718 c 0
 601 718 759 561 759 357 c 0
 759 269 727 187 676 125 c 1
 757 46 l 1
 697 -18 l 1
 616 63 l 1
 555 14 478 -12 395 -12 c 0
 191 -12 34 151 34 357 c 0
138 357 m 0
 138 202 251 82 395 82 c 0
 488 82 544 131 544 131 c 1
 466 207 l 1
 526 272 l 1
 603 193 l 1
 635 237 655 296 655 357 c 0
 655 510 541 624 395 624 c 0
 251 624 138 510 138 357 c 0
EndSplineSet
EndChar

StartChar: R
Encoding: 82 82 50
Width: 618
Flags: MW
HStem: 0 86<531.5 608 595 608 595 608> 281 86<203 295 203 333> 620 86<38 103 38 346 203 203 203 335>
VStem: 103 100<0 281 367 620> 454 103<455.5 534.5>
LayerCount: 2
Fore
SplineSet
103 0 m 1
 103 620 l 1
 38 620 l 1
 38 706 l 1
 346 706 l 2
 470 706 557 628 557 499 c 0
 557 381 480 323 430 312 c 1
 430 310 l 1
 430 310 448 301 460 278 c 2
 545 109 l 2
 555 88 571 86 595 86 c 2
 608 86 l 1
 608 0 l 1
 559 0 l 2
 504 0 484 7 461 53 c 2
 365 243 l 1
 347 276 334 281 295 281 c 2
 203 281 l 1
 203 0 l 1
 103 0 l 1
203 367 m 1
 333 367 l 2
 409 367 454 416 454 495 c 0
 454 574 409 620 335 620 c 2
 203 620 l 1
 203 367 l 1
EndSplineSet
EndChar

StartChar: S
Encoding: 83 83 51
Width: 533
Flags: MW
HStem: -12 91<217.5 303 217.5 338> 627 91<238 304>
VStem: 50 102<460.5 558.5 460.5 582> 385 92<530 563 563 581.5> 391 101<151.5 258>
LayerCount: 2
Fore
SplineSet
34 93 m 1xe8
 93 164 l 1
 93 164 165 79 270 79 c 0
 336 79 391 119 391 184 c 0xe8
 391 332 50 309 50 529 c 0
 50 635 143 718 276 718 c 0
 351 718 477 684 477 588 c 2
 477 530 l 1
 385 530 l 1
 385 563 l 2xf0
 385 600 332 627 276 627 c 0
 200 627 152 585 152 532 c 0
 152 389 492 421 492 189 c 0
 492 81 408 -12 268 -12 c 0
 118 -12 34 93 34 93 c 1xe8
EndSplineSet
EndChar

StartChar: T
Encoding: 84 84 52
Width: 636
Flags: MW
HStem: 0 21G<268 268 268 368> 620 86<119 126 126 268 368 368 368 510>
VStem: 15 89<553 598 553 646 553 668.5> 268 100<0 620 0 620> 532 89<553 598 598 605.5>
CounterMasks: 1 38
LayerCount: 2
Fore
SplineSet
268 0 m 1
 268 620 l 1
 126 620 l 2
 112 620 104 613 104 598 c 2
 104 553 l 1
 15 553 l 1
 15 646 l 2
 15 691 30 706 75 706 c 2
 561 706 l 2
 606 706 621 691 621 646 c 2
 621 553 l 1
 532 553 l 1
 532 598 l 2
 532 613 524 620 510 620 c 2
 368 620 l 1
 368 0 l 1
 268 0 l 1
EndSplineSet
Substitution2: "Single Substitution lookup 9 subtable" T.alt
EndChar

StartChar: U
Encoding: 85 85 53
Width: 728
Flags: MW
HStem: -12 94<313 415 313 445.5> 620 86<30 73 30 131 648 655 655 698>
VStem: 95 100<247 251 251 598 598 605.5> 533 100<252 598>
LayerCount: 2
Fore
SplineSet
95 247 m 2
 95 598 l 2
 95 613 87 620 73 620 c 2
 30 620 l 1
 30 706 l 1
 131 706 l 2
 176 706 195 687 195 642 c 2
 195 251 l 2
 195 145 262 82 364 82 c 0
 466 82 533 145 533 252 c 2
 533 642 l 2
 533 687 553 706 598 706 c 2
 698 706 l 1
 698 620 l 1
 655 620 l 2
 641 620 633 613 633 598 c 2
 633 247 l 2
 633 93 526 -12 365 -12 c 0
 203 -12 95 93 95 247 c 2
EndSplineSet
EndChar

StartChar: V
Encoding: 86 86 54
Width: 668
Flags: MW
HStem: 0 21G<281 281 281 387> 0 116<281 335 333 335 333 387> 620 86<12 26 12 68 633 642 642 656>
VStem: 12 644<620 706 620 706>
LayerCount: 2
Fore
SplineSet
281 0 m 1xb0
 59 598 l 2
 53 616 43 620 26 620 c 2
 12 620 l 1
 12 706 l 1
 68 706 l 2
 118 706 135 695 151 648 c 2
 306 213 l 2
 319 175 333 116 333 116 c 1
 335 116 l 1
 335 116 348 175 362 213 c 2x70
 517 648 l 2
 534 695 550 706 600 706 c 2
 656 706 l 1
 656 620 l 1
 642 620 l 2
 624 620 615 616 609 598 c 2
 387 0 l 1
 281 0 l 1xb0
EndSplineSet
EndChar

StartChar: W
Encoding: 87 87 55
Width: 968
Flags: MW
HStem: 0 21G<221 221 221 338 631 631 631 747> 0 119<221 286 284 286 284 338 682 684> 620 86<17 32 17 74 927 936 936 951>
VStem: 17 934<620 706 620 706>
LayerCount: 2
Fore
SplineSet
221 0 m 1xb0
 66 598 l 2
 61 616 50 620 32 620 c 2
 17 620 l 1
 17 706 l 1
 74 706 l 2
 124 706 149 696 161 648 c 2
 270 194 l 2
 279 156 284 119 284 119 c 1
 286 119 l 1
 286 119 292 155 303 194 c 2
 445 704 l 1
 535 704 l 1
 667 194 l 2
 677 155 682 119 682 119 c 1
 684 119 l 1
 684 119 688 156 697 194 c 2x70
 808 648 l 2
 820 696 844 706 894 706 c 2
 951 706 l 1
 951 620 l 1
 936 620 l 2
 918 620 907 616 902 598 c 2
 747 0 l 1
 631 0 l 1
 511 446 l 2
 499 492 491 543 491 543 c 1
 489 543 l 1
 489 543 479 492 466 447 c 2
 338 0 l 1
 221 0 l 1xb0
EndSplineSet
EndChar

StartChar: X
Encoding: 88 88 56
Width: 591
Flags: MW
HStem: 0 21G<10 10 10 123 468 468 468 581> 620 86<18 44 18 77 537.5 548 548 573>
VStem: 10 571<0 0>
LayerCount: 2
Fore
SplineSet
10 0 m 1
 232 364 l 1
 90 595 l 2
 76 618 64 620 44 620 c 2
 18 620 l 1
 18 706 l 1
 77 706 l 2
 125 706 145 697 171 652 c 2
 250 518 l 2
 272 479 295 435 295 435 c 1
 297 435 l 1
 297 435 317 479 340 518 c 2
 420 652 l 2
 446 697 466 706 515 706 c 2
 573 706 l 1
 573 620 l 1
 548 620 l 2
 527 620 515 618 501 595 c 2
 358 364 l 1
 581 0 l 1
 468 0 l 1
 340 215 l 2
 317 254 295 295 295 295 c 1
 293 295 l 1
 293 295 273 253 250 214 c 2
 123 0 l 1
 10 0 l 1
EndSplineSet
EndChar

StartChar: Y
Encoding: 89 89 57
Width: 603
Flags: MW
HStem: 0 21G<252 252 252 352> 620 86<10 30 10 56 563.5 574 574 593>
VStem: 252 100<0 308 0 308>
LayerCount: 2
Fore
SplineSet
252 0 m 1
 252 308 l 1
 73 595 l 2
 60 616 51 620 30 620 c 2
 10 620 l 1
 10 706 l 1
 56 706 l 2
 104 706 123 699 151 652 c 2
 258 474 l 2
 281 435 301 395 301 395 c 1
 303 395 l 1
 303 395 322 435 346 474 c 2
 452 652 l 2
 480 699 500 706 547 706 c 2
 593 706 l 1
 593 620 l 1
 574 620 l 2
 553 620 543 616 530 595 c 2
 352 308 l 1
 352 0 l 1
 252 0 l 1
EndSplineSet
EndChar

StartChar: Z
Encoding: 90 90 58
Width: 582
Flags: MW
HStem: 0 86<142 142 194 443 443 450> 620 86<132 139 139 366>
VStem: 26 91<553 598 553 642 553 664.5> 465 92<108 153 41.5 153>
LayerCount: 2
Fore
SplineSet
18 0 m 1
 18 66 l 1
 366 556 l 2
 394 595 419 621 419 621 c 1
 419 623 l 1
 419 623 400 620 366 620 c 2
 139 620 l 2
 125 620 117 613 117 598 c 2
 117 553 l 1
 26 553 l 1
 26 642 l 2
 26 687 45 706 90 706 c 2
 543 706 l 1
 543 641 l 1
 194 150 l 2
 167 111 142 86 142 86 c 1
 142 84 l 1
 142 84 161 86 194 86 c 2
 443 86 l 2
 457 86 465 94 465 108 c 2
 465 153 l 1
 557 153 l 1
 557 64 l 2
 557 19 538 0 493 0 c 2
 18 0 l 1
EndSplineSet
EndChar

StartChar: bracketleft
Encoding: 91 91 59
Width: 327
Flags: MW
HStem: -95 74<138.5 262 204 262 204 262> 662 73<197 204 204 262>
VStem: 97 85<-6.5 1 1 640>
LayerCount: 2
Fore
SplineSet
97 -31 m 2
 97 671 l 2
 97 716 116 735 161 735 c 2
 262 735 l 1
 262 662 l 1
 204 662 l 2
 190 662 182 655 182 640 c 2
 182 1 l 2
 182 -14 190 -21 204 -21 c 2
 262 -21 l 1
 262 -95 l 1
 161 -95 l 2
 116 -95 97 -76 97 -31 c 2
EndSplineSet
Substitution2: "'case' Case-Sensitive Forms in Latin lookup 0 subtable" bracketleft.case
EndChar

StartChar: backslash
Encoding: 92 92 60
Width: 340
Flags: MW
HStem: -42 786<5 259 5 345>
VStem: 5 340
LayerCount: 2
Fore
SplineSet
259 -42 m 1
 5 744 l 1
 91 744 l 1
 345 -42 l 1
 259 -42 l 1
EndSplineSet
EndChar

StartChar: bracketright
Encoding: 93 93 61
Width: 327
Flags: MW
HStem: -95 74<65 123 123 130 65 166 65 123> 662 73<65 123 65 166>
VStem: 145 86<1 640 640 647.5>
LayerCount: 2
Fore
SplineSet
65 -21 m 1
 123 -21 l 2
 137 -21 145 -14 145 1 c 2
 145 640 l 2
 145 655 137 662 123 662 c 2
 65 662 l 1
 65 735 l 1
 166 735 l 2
 212 735 231 716 231 671 c 2
 231 -31 l 2
 231 -76 212 -95 166 -95 c 2
 65 -95 l 1
 65 -21 l 1
EndSplineSet
Substitution2: "'case' Case-Sensitive Forms in Latin lookup 0 subtable" bracketright.case
EndChar

StartChar: asciicircum
Encoding: 94 94 62
Width: 613
Flags: MW
HStem: 686 20G<269 332 332 332>
VStem: 69 462<247 247>
LayerCount: 2
Fore
SplineSet
69 247 m 1
 269 706 l 1
 332 706 l 1
 531 247 l 1
 444 247 l 1
 300 599 l 1
 157 247 l 1
 69 247 l 1
EndSplineSet
EndChar

StartChar: underscore
Encoding: 95 95 63
Width: 548
Flags: MW
HStem: -78 78<5 543 5 543>
VStem: 5 538<-78 0 -78 0>
LayerCount: 2
Fore
SplineSet
5 0 m 1
 543 0 l 1
 543 -78 l 1
 5 -78 l 1
 5 0 l 1
EndSplineSet
EndChar

StartChar: grave
Encoding: 96 96 64
Width: 379
Flags: MW
HStem: 755 127<178 178 178 181 83 254>
VStem: 83 171<755 882>
LayerCount: 2
Fore
SplineSet
178 755 m 1
 83 882 l 1
 181 882 l 1
 254 755 l 1
 178 755 l 1
EndSplineSet
EndChar

StartChar: a
Encoding: 97 97 65
Width: 544
Flags: MW
HStem: -12 78<198 269.5> 0 83<410.5 524 483 524 483 524> 244 71<303.5 364 342 364 342 365> 441 77<240 291.5>
VStem: 37 98<126.5 193.5 126.5 223.5> 78 91<373 402 373 423 373 464.5> 365 96<227 244 244 244>
LayerCount: 2
Fore
SplineSet
37 142 m 0x7a
 37 305 257 315 342 315 c 2
 364 315 l 1
 364 320 l 2
 364 409 331 441 252 441 c 0
 228 441 169 435 169 402 c 2
 169 373 l 1
 78 373 l 1
 78 423 l 2
 78 506 204 518 253 518 c 0
 417 518 461 432 461 320 c 2
 461 105 l 2
 461 90 469 83 483 83 c 2
 524 83 l 1
 524 0 l 1
 433 0 l 2
 388 0 370 22 370 58 c 0x76
 370 75 372 88 372 88 c 1
 370 88 l 1
 370 88 330 -12 209 -12 c 0xba
 122 -12 37 41 37 142 c 0x7a
135 147 m 0xba
 135 106 166 66 230 66 c 0
 312 66 365 152 365 227 c 2
 365 244 l 1
 340 244 l 2
 267 244 135 240 135 147 c 0xba
EndSplineSet
EndChar

StartChar: b
Encoding: 98 98 66
Width: 600
Flags: MW
HStem: -12 83<276.5 359 271 399.5> 0 71 433 85<283.5 363.5> 623 83<18 59 18 114>
VStem: 81 97<435 435 465 477 477 601 601 608.5> 465 98<194.5 307>
LayerCount: 2
Fore
SplineSet
81 0 m 1x7c
 81 601 l 2
 81 616 73 623 59 623 c 2
 18 623 l 1
 18 706 l 1
 114 706 l 2
 159 706 178 687 178 642 c 2
 178 477 l 2
 178 453 176 435 176 435 c 1
 178 435 l 1
 178 435 222 518 341 518 c 0
 477 518 563 410 563 253 c 0
 563 92 466 -12 333 -12 c 0
 220 -12 174 73 174 73 c 1
 172 73 l 1
 172 73 174 57 174 35 c 2xbc
 174 0 l 1
 81 0 l 1x7c
176 251 m 0
 176 161 223 71 319 71 c 0
 399 71 465 137 465 252 c 0
 465 362 406 433 321 433 c 0
 246 433 176 380 176 251 c 0
EndSplineSet
EndChar

StartChar: c
Encoding: 99 99 67
Width: 533
Flags: MW
HStem: -12 86<266 360.5 266 373> 435 83<258.5 326.5>
VStem: 36 99<196.5 307.5 196.5 327.5> 402 88<355 383 383 401>
LayerCount: 2
Fore
SplineSet
36 253 m 0
 36 402 145 518 308 518 c 0
 369 518 490 493 490 407 c 2
 490 355 l 1
 402 355 l 1
 402 383 l 2
 402 419 345 435 308 435 c 0
 209 435 135 361 135 254 c 0
 135 139 219 74 313 74 c 0
 408 74 470 144 470 144 c 1
 512 75 l 1
 512 75 440 -12 306 -12 c 0
 147 -12 36 101 36 253 c 0
EndSplineSet
EndChar

StartChar: d
Encoding: 100 100 68
Width: 605
Flags: MW
HStem: -12 84<237 316.5 237 322> 0 83<467 582 541 582 541 582> 434 84<241.5 324.5 199 329.5> 623 83<359 400 359 455>
VStem: 37 99<198 310.5 198 333.5> 422 97<440 440 474 601 601 608.5>
LayerCount: 2
Fore
SplineSet
37 253 m 0xbc
 37 414 132 518 266 518 c 0
 383 518 422 440 422 440 c 1
 424 440 l 1
 424 440 422 455 422 474 c 2
 422 601 l 2
 422 616 414 623 400 623 c 2
 359 623 l 1
 359 706 l 1
 455 706 l 2
 500 706 519 687 519 642 c 2
 519 105 l 2
 519 90 527 83 541 83 c 2
 582 83 l 1
 582 0 l 1
 489 0 l 2
 445 0 427 20 427 54 c 0x7c
 427 69 428 80 428 80 c 1
 426 80 l 1
 426 80 384 -12 260 -12 c 0
 123 -12 37 96 37 253 c 0xbc
279 72 m 0
 354 72 425 125 425 254 c 0
 425 344 378 434 281 434 c 0
 202 434 136 368 136 253 c 0
 136 143 195 72 279 72 c 0
EndSplineSet
EndChar

StartChar: e
Encoding: 101 101 69
Width: 552
Flags: MW
HStem: -12 84<265 353.5 265 365> 241 71<140 408 140 505 136 408> 441 77<252 320.5>
VStem: 36 100<241 241 241 333.5> 408 100<312 312>
LayerCount: 2
Fore
SplineSet
36 253 m 0
 36 414 146 518 290 518 c 0
 432 518 508 412 508 281 c 0
 508 268 505 241 505 241 c 1
 136 241 l 1
 142 133 220 72 310 72 c 0
 397 72 458 131 458 131 c 1
 500 62 l 1
 500 62 425 -12 305 -12 c 0
 145 -12 36 103 36 253 c 0
140 312 m 1
 408 312 l 1
 405 396 352 441 289 441 c 0
 215 441 155 396 140 312 c 1
EndSplineSet
EndChar

StartChar: f
Encoding: 102 102 70
Width: 325
Flags: MW
HStem: 0 21G<85 85 85 182> 428 78<22 85 22 85 182 302> 627 84<269 287 244 295.5> 688 20G<313 313>
VStem: 85 97<0 428 0 428 506 521 0 523 0 606.5>
LayerCount: 2
Fore
SplineSet
85 0 m 1xe8
 85 428 l 1
 22 428 l 1
 22 506 l 1
 85 506 l 1
 85 523 l 2
 85 690 212 711 276 711 c 0xe8
 298 711 313 708 313 708 c 1xd8
 313 625 l 1
 313 625 303 627 288 627 c 0
 250 627 182 615 182 521 c 2
 182 506 l 1
 302 506 l 1
 302 428 l 1
 182 428 l 1
 182 0 l 1
 85 0 l 1xe8
EndSplineSet
EndChar

StartChar: g
Encoding: 103 103 71
Width: 595
Flags: MW
HStem: -210 86<225.5 298 216 320> 6 84<236.5 300> 423 83<526.5 533 533 573> 434 84<230 313> 439 67<421 573 423 573>
VStem: 37 99<214.5 318.5 214.5 337.5> 414 97<17 21 21 51 51 59 83 83>
LayerCount: 2
Fore
SplineSet
37 265 m 0xd6
 37 410 118 518 259 518 c 0xd6
 385 518 421 439 421 439 c 1
 423 439 l 1xce
 423 439 423 447 423 455 c 0
 423 485 439 506 479 506 c 2
 573 506 l 1
 573 423 l 1
 533 423 l 2
 520 423 511 416 511 403 c 2xe6
 511 21 l 2
 511 -146 384 -210 256 -210 c 0
 195 -210 133 -193 83 -168 c 1
 116 -90 l 1
 116 -90 178 -124 254 -124 c 0
 342 -124 414 -85 414 17 c 2
 414 51 l 2
 414 67 416 83 416 83 c 1
 414 83 l 1
 384 34 337 6 263 6 c 0
 123 6 37 119 37 265 c 0xd6
282 90 m 0
 352 90 417 132 417 264 c 0
 417 396 352 434 274 434 c 0
 186 434 136 370 136 267 c 0
 136 162 191 90 282 90 c 0
EndSplineSet
EndChar

StartChar: h
Encoding: 104 104 72
Width: 622
Flags: MW
HStem: 0 83<484.5 602 561 602 561 602> 429 89<315.5 387.5> 623 83<18 59 18 114>
VStem: 81 97<0 237 435 447 447 601 601 608.5> 443 96<97.5 105 105 302 302 324>
LayerCount: 2
Fore
SplineSet
81 0 m 1
 81 601 l 2
 81 616 73 623 59 623 c 2
 18 623 l 1
 18 706 l 1
 114 706 l 2
 159 706 178 687 178 644 c 2
 178 447 l 2
 178 423 176 405 176 405 c 1
 178 405 l 1
 200 454 265 518 366 518 c 0
 485 518 539 453 539 324 c 2
 539 105 l 2
 539 90 547 83 561 83 c 2
 602 83 l 1
 602 0 l 1
 507 0 l 2
 462 0 443 19 443 64 c 2
 443 302 l 2
 443 373 428 429 347 429 c 0
 270 429 208 377 187 304 c 1
 180 284 178 261 178 237 c 2
 178 0 l 1
 81 0 l 1
EndSplineSet
EndChar

StartChar: i
Encoding: 105 105 73
Width: 275
Flags: MW
HStem: 0 83<131.5 249 208 249 208 249> 423 83<27 68 27 122> 605 101<92 179 92 179>
VStem: 90 96<97.5 105 105 401 401 408.5> 92 87<605 706 605 706>
LayerCount: 2
Fore
SplineSet
92 605 m 1xe8
 92 706 l 1
 179 706 l 1
 179 605 l 1
 92 605 l 1xe8
90 64 m 2xf0
 90 401 l 2
 90 416 82 423 68 423 c 2
 27 423 l 1
 27 506 l 1
 122 506 l 2
 167 506 186 487 186 442 c 2
 186 105 l 2
 186 90 194 83 208 83 c 2
 249 83 l 1
 249 0 l 1
 154 0 l 2
 109 0 90 19 90 64 c 2xf0
EndSplineSet
EndChar

StartChar: j
Encoding: 106 106 74
Width: 286
Flags: MW
HStem: -206 84<3 20.5 -4.5 45> 423 83<47 88 47 143> 605 101<112 200 112 200>
VStem: 110 97<-11 401 401 408.5> 112 88<605 706 605 706>
LayerCount: 2
Fore
SplineSet
112 605 m 1xe8
 112 706 l 1
 200 706 l 1
 200 605 l 1
 112 605 l 1xe8
-20 -121 m 1
 -20 -121 -11 -122 2 -122 c 0
 39 -122 110 -110 110 -11 c 2
 110 401 l 2
 110 416 102 423 88 423 c 2
 47 423 l 1
 47 506 l 1
 143 506 l 2
 188 506 207 487 207 442 c 2
 207 -17 l 2xf0
 207 -186 77 -206 13 -206 c 0
 -7 -206 -20 -204 -20 -204 c 1
 -20 -121 l 1
EndSplineSet
EndChar

StartChar: k
Encoding: 107 107 75
Width: 525
Flags: MW
HStem: 0 83<418.5 512 481 512 481 512> 238 82<178 216 178 223> 486 20G<393 504 504 504> 623 83<18 59 18 114>
VStem: 81 97<0 238 320 601 601 608.5>
LayerCount: 2
Fore
SplineSet
81 0 m 1
 81 601 l 2
 81 616 73 623 59 623 c 2
 18 623 l 1
 18 706 l 1
 114 706 l 2
 159 706 178 693 178 648 c 2
 178 320 l 1
 223 320 l 2
 241 320 263 325 276 342 c 2
 393 506 l 1
 504 506 l 1
 367 318 l 2
 344 287 329 280 329 280 c 1
 329 278 l 1
 329 278 346 272 363 240 c 2
 438 103 l 2
 446 87 456 83 481 83 c 2
 512 83 l 1
 512 0 l 1
 442 0 l 2
 395 0 380 8 358 47 c 2
 266 217 l 2
 255 236 232 238 216 238 c 2
 178 238 l 1
 178 0 l 1
 81 0 l 1
EndSplineSet
EndChar

StartChar: l
Encoding: 108 108 76
Width: 268
Flags: MW
HStem: 0 83<124.5 243 202 243 202 243> 623 83<20 61 20 116>
VStem: 83 97<97.5 105 105 601 601 608.5>
LayerCount: 2
Fore
SplineSet
83 64 m 2
 83 601 l 2
 83 616 75 623 61 623 c 2
 20 623 l 1
 20 706 l 1
 116 706 l 2
 161 706 180 687 180 642 c 2
 180 105 l 2
 180 90 188 83 202 83 c 2
 243 83 l 1
 243 0 l 1
 147 0 l 2
 102 0 83 19 83 64 c 2
EndSplineSet
EndChar

StartChar: m
Encoding: 109 109 77
Width: 937
Flags: MW
HStem: 0 83<798.5 917 876 917 876 917> 423 83<22 63 22 115> 430 88<313.5 372.5 646 705.5>
VStem: 85 97<0 231 0 401> 421 97<0 231 0 303 0 336> 757 97<97.5 105 105 303 303 324>
CounterMasks: 1 1c
LayerCount: 2
Fore
SplineSet
85 0 m 1xbc
 85 401 l 2
 85 416 77 423 63 423 c 2
 22 423 l 1
 22 506 l 1
 115 506 l 2
 159 506 179 487 179 450 c 2
 179 431 l 2xdc
 179 415 178 402 178 402 c 1
 180 402 l 1
 204 461 274 518 353 518 c 0
 439 518 488 479 505 403 c 1
 507 403 l 1
 535 464 605 518 687 518 c 0
 801 518 854 453 854 324 c 2
 854 105 l 2
 854 90 862 83 876 83 c 2
 917 83 l 1
 917 0 l 1
 821 0 l 2
 776 0 757 19 757 64 c 2
 757 303 l 2
 757 374 743 430 668 430 c 0
 598 430 544 369 526 300 c 0
 521 279 518 257 518 231 c 2
 518 0 l 1
 421 0 l 1
 421 303 l 2
 421 369 411 430 334 430 c 0
 260 430 208 368 189 296 c 0
 184 276 182 254 182 231 c 2
 182 0 l 1
 85 0 l 1xbc
EndSplineSet
EndChar

StartChar: n
Encoding: 110 110 78
Width: 626
Flags: MW
HStem: 0 83<487.5 606 565 606 565 606> 423 83<22 63 22 115> 429 89<314 391.5>
VStem: 85 97<0 237 0 401> 446 97<97.5 105 105 302 302 324>
LayerCount: 2
Fore
SplineSet
85 0 m 1xd8
 85 401 l 2
 85 416 77 423 63 423 c 2
 22 423 l 1
 22 506 l 1
 115 506 l 2
 158 506 179 487 179 450 c 2
 179 431 l 2xd8
 179 415 177 402 177 402 c 1
 179 402 l 1
 199 446 259 518 369 518 c 0
 489 518 543 453 543 324 c 2
 543 105 l 2
 543 90 551 83 565 83 c 2
 606 83 l 1
 606 0 l 1
 510 0 l 2
 465 0 446 19 446 64 c 2
 446 302 l 2
 446 373 432 429 351 429 c 0xb8
 273 429 211 378 191 305 c 1
 184 285 182 262 182 237 c 2
 182 0 l 1
 85 0 l 1xd8
EndSplineSet
EndChar

StartChar: o
Encoding: 111 111 79
Width: 617
Flags: MW
HStem: -12 84<260.5 356 260.5 383.5> 434 84<260.5 356>
VStem: 36 99<201 306.5 201 330.5> 482 99<201 306.5>
LayerCount: 2
Fore
SplineSet
36 254 m 0
 36 407 157 518 308 518 c 0
 459 518 581 407 581 254 c 0
 581 100 459 -12 308 -12 c 0
 157 -12 36 100 36 254 c 0
135 254 m 0
 135 148 213 72 308 72 c 0
 404 72 482 148 482 254 c 0
 482 359 404 434 308 434 c 0
 213 434 135 359 135 254 c 0
EndSplineSet
EndChar

StartChar: p
Encoding: 112 112 80
Width: 604
Flags: MW
HStem: -200 21G<85 85 85 182> -12 83<281 362 275 403> 423 83<22 63 22 113> 433 85<287.5 367>
VStem: 85 97<-200 25 -200 69 -200 401> 468 99<194.5 307>
LayerCount: 2
Fore
SplineSet
85 -200 m 1xdc
 85 401 l 2
 85 416 77 423 63 423 c 2
 22 423 l 1
 22 506 l 1
 113 506 l 2
 158 506 175 487 175 455 c 0xec
 175 440 174 428 174 428 c 1
 176 428 l 1
 176 428 218 518 344 518 c 0
 480 518 567 410 567 253 c 0
 567 92 469 -12 337 -12 c 0
 225 -12 182 69 182 69 c 1
 180 69 l 1
 180 69 182 51 182 25 c 2
 182 -200 l 1
 85 -200 l 1xdc
179 251 m 0
 179 161 228 71 322 71 c 0
 402 71 468 137 468 252 c 0
 468 362 409 433 325 433 c 0xdc
 250 433 179 380 179 251 c 0
EndSplineSet
EndChar

StartChar: q
Encoding: 113 113 81
Width: 604
Flags: MW
HStem: -200 21G<423 520 423 423> -12 84<237.5 317.5 237.5 320> 423 83<535 542 542 583> 434 84<242 326 199.5 330>
VStem: 38 98<198 310.5 198 333.5> 423 97<-200 29 29 42 73 73>
LayerCount: 2
Fore
SplineSet
38 253 m 0xdc
 38 414 133 518 266 518 c 0
 386 518 429 432 429 432 c 1
 431 432 l 1xdc
 431 432 430 443 430 458 c 0
 430 488 449 506 492 506 c 2
 583 506 l 1
 583 423 l 1
 542 423 l 2
 528 423 520 416 520 401 c 2xec
 520 -200 l 1
 423 -200 l 1
 423 29 l 2
 423 55 425 73 425 73 c 1
 423 73 l 1
 423 73 380 -12 260 -12 c 0
 124 -12 38 96 38 253 c 0xdc
280 72 m 0
 355 72 425 125 425 254 c 0
 425 344 378 434 282 434 c 0
 202 434 136 368 136 253 c 0
 136 143 195 72 280 72 c 0
EndSplineSet
EndChar

StartChar: r
Encoding: 114 114 82
Width: 387
Flags: MW
HStem: 0 21G<85 85 85 182> 417 95<305 344> 423 83<22 63 22 114>
VStem: 85 97<0 207 0 401>
LayerCount: 2
Fore
SplineSet
85 0 m 1xb0
 85 401 l 2
 85 416 77 423 63 423 c 2
 22 423 l 1
 22 506 l 1
 114 506 l 2
 158 506 179 488 179 447 c 2
 179 415 l 2xb0
 179 395 177 380 177 380 c 1
 179 380 l 1
 203 454 261 512 339 512 c 0
 352 512 365 510 365 510 c 1
 365 414 l 1
 365 414 352 417 336 417 c 0xd0
 274 417 217 373 194 298 c 0
 185 269 182 238 182 207 c 2
 182 0 l 1
 85 0 l 1xb0
EndSplineSet
EndChar

StartChar: s
Encoding: 115 115 83
Width: 454
Flags: MW
HStem: -12 79<183.5 253.5 183.5 282> 440 78<204.5 248.5>
VStem: 42 97<332 400 332 424.5> 309 87<372 397 397 412> 318 97<110 177.5>
LayerCount: 2
Fore
SplineSet
27 77 m 1xe8
 77 142 l 1
 77 142 137 67 230 67 c 0
 277 67 318 88 318 132 c 0xe8
 318 223 42 213 42 376 c 0
 42 473 127 518 230 518 c 0
 291 518 396 497 396 420 c 2
 396 372 l 1
 309 372 l 1
 309 397 l 2xf0
 309 427 264 440 233 440 c 0
 176 440 139 420 139 380 c 0
 139 284 415 305 415 136 c 0
 415 46 335 -12 229 -12 c 0
 94 -12 27 77 27 77 c 1xe8
EndSplineSet
EndChar

StartChar: t
Encoding: 116 116 84
Width: 352
Flags: MW
HStem: -4 86<274.5 292.5> 428 78<23 89 23 91 186 307>
VStem: 89 97<185 196 196 428>
LayerCount: 2
Fore
SplineSet
89 185 m 2
 89 428 l 1
 23 428 l 1
 23 506 l 1
 91 506 l 1
 91 645 l 1
 186 645 l 1
 186 506 l 1
 307 506 l 1
 307 428 l 1
 186 428 l 1
 186 196 l 2
 186 95 256 82 293 82 c 0
 307 82 316 84 316 84 c 1
 316 -2 l 1
 316 -2 303 -4 282 -4 c 0
 218 -4 89 16 89 185 c 2
EndSplineSet
EndChar

StartChar: u
Encoding: 117 117 85
Width: 621
Flags: MW
HStem: -12 90<234 305> 0 83<484.5 599 558 599 558 599> 423 83<20 61 20 115>
VStem: 83 97<182 204 204 401 401 408.5> 439 97<269 506>
LayerCount: 2
Fore
SplineSet
83 182 m 2x78
 83 401 l 2
 83 416 75 423 61 423 c 2
 20 423 l 1
 20 506 l 1
 115 506 l 2
 161 506 180 487 180 444 c 2
 180 204 l 2
 180 134 194 78 274 78 c 0xb8
 378 78 439 169 439 269 c 2
 439 506 l 1
 536 506 l 1
 536 105 l 2
 536 90 544 83 558 83 c 2
 599 83 l 1
 599 0 l 1
 506 0 l 2
 463 0 442 20 442 56 c 2
 442 75 l 2x78
 442 91 443 104 443 104 c 1
 441 104 l 1
 420 54 355 -12 255 -12 c 0xb8
 141 -12 83 48 83 182 c 2x78
EndSplineSet
EndChar

StartChar: v
Encoding: 118 118 86
Width: 532
Flags: MW
HStem: 0 21G<210 210 210 322> 0 98<210 269 267 269 267 322> 423 83<13 23 13 63 500.5 509 509 519>
VStem: 13 506<423 506 423 506>
LayerCount: 2
Fore
SplineSet
210 0 m 1xb0
 54 403 l 2
 48 418 39 423 23 423 c 2
 13 423 l 1
 13 506 l 1
 63 506 l 2
 108 506 125 495 140 455 c 2
 249 164 l 2
 259 136 267 98 267 98 c 1
 269 98 l 1
 269 98 277 136 287 164 c 2x70
 395 455 l 2
 410 495 428 506 472 506 c 2
 519 506 l 1
 519 423 l 1
 509 423 l 2
 492 423 482 418 476 403 c 2
 322 0 l 1
 210 0 l 1xb0
EndSplineSet
EndChar

StartChar: w
Encoding: 119 119 87
Width: 834
Flags: MW
HStem: 0 97<188 250 248 250 248 298 585 587> 423 83<10 24 10 71 802 810 810 824>
VStem: 10 814<423 506 423 506>
LayerCount: 2
Fore
SplineSet
188 0 m 1
 55 403 l 2
 50 419 40 423 24 423 c 2
 10 423 l 1
 10 506 l 1
 71 506 l 2
 116 506 133 495 146 452 c 2
 236 151 l 2
 244 125 248 97 248 97 c 1
 250 97 l 1
 250 97 256 125 264 151 c 2
 373 504 l 1
 462 504 l 1
 572 151 l 2
 580 125 585 97 585 97 c 1
 587 97 l 1
 587 97 591 125 599 151 c 2
 688 452 l 2
 701 495 719 506 764 506 c 2
 824 506 l 1
 824 423 l 1
 810 423 l 2
 794 423 784 419 779 403 c 2
 646 0 l 1
 537 0 l 1
 432 325 l 2
 424 351 418 380 418 380 c 1
 416 380 l 1
 416 380 410 351 402 325 c 2
 298 0 l 1
 188 0 l 1
EndSplineSet
EndChar

StartChar: x
Encoding: 120 120 88
Width: 494
Flags: MW
HStem: 0 21G<15 15 15 125 370 370 370 479> 423 83<18 46 18 80 438 448 448 477>
VStem: 15 464<0 0>
LayerCount: 2
Fore
SplineSet
15 0 m 1
 186 260 l 1
 89 404 l 2
 78 420 67 423 46 423 c 2
 18 423 l 1
 18 506 l 1
 80 506 l 2
 127 506 141 497 168 455 c 2
 230 357 l 1
 237 344 246 325 246 325 c 1
 248 325 l 1
 248 325 257 344 265 357 c 2
 326 455 l 2
 352 498 367 506 414 506 c 2
 477 506 l 1
 477 423 l 1
 448 423 l 2
 428 423 415 420 405 405 c 2
 308 260 l 1
 479 0 l 1
 370 0 l 1
 263 165 l 2
 256 177 248 192 248 192 c 1
 246 192 l 1
 246 192 238 177 230 165 c 2
 125 0 l 1
 15 0 l 1
EndSplineSet
EndChar

StartChar: y
Encoding: 121 121 89
Width: 546
Flags: MW
HStem: -210 84<97.5 138.5 97.5 159.5> 423 83<14 26 14 71 511 519 519 532>
VStem: 5 527
LayerCount: 2
Fore
SplineSet
45 -90 m 2
 45 -91 76 -126 119 -126 c 0
 158 -126 189 -98 208 -53 c 2
 231 2 l 1
 58 403 l 2
 51 419 42 423 26 423 c 2
 14 423 l 1
 14 506 l 1
 71 506 l 2
 112 506 127 495 143 455 c 2
 258 170 l 2
 268 144 276 109 276 109 c 1
 278 109 l 1
 278 109 285 144 295 170 c 2
 400 455 l 2
 415 495 433 506 474 506 c 2
 532 506 l 1
 532 423 l 1
 519 423 l 2
 503 423 494 419 487 403 c 2
 287 -91 l 2
 256 -169 195 -210 124 -210 c 0
 49 -210 5 -160 5 -160 c 1
 45 -90 l 2
EndSplineSet
EndChar

StartChar: z
Encoding: 122 122 90
Width: 505
Flags: MW
HStem: 0 83<160 160 209 371 371 378> 423 83<140 147 147 285 334 334>
VStem: 36 89<367 401 367 442 367 464.5> 393 88<105 139 41.5 139>
LayerCount: 2
Fore
SplineSet
33 0 m 1
 33 56 l 1
 292 376 l 2
 314 403 334 423 334 423 c 1
 334 425 l 1
 334 425 318 423 285 423 c 2
 147 423 l 2
 133 423 125 415 125 401 c 2
 125 367 l 1
 36 367 l 1
 36 442 l 2
 36 487 55 506 100 506 c 2
 462 506 l 1
 462 450 l 1
 202 129 l 2
 181 104 160 83 160 83 c 1
 160 81 l 1
 160 81 176 83 209 83 c 2
 371 83 l 2
 385 83 393 91 393 105 c 2
 393 139 l 1
 481 139 l 1
 481 64 l 2
 481 19 462 0 417 0 c 2
 33 0 l 1
EndSplineSet
EndChar

StartChar: braceleft
Encoding: 123 123 91
Width: 339
Flags: MW
HStem: -98 76<252 299> 282 86<29 29> 662 75<272.5 283 252 289 252 299>
VStem: 29 89<325 327 325 368 325 368> 114 85<77 83 83 173 173 198 479 557>
LayerCount: 2
Fore
SplineSet
114 77 m 2xe8
 114 173 l 2xe8
 114 275 29 282 29 282 c 1xf0
 29 368 l 1
 29 368 114 375 114 479 c 2
 114 563 l 2
 114 721 228 737 276 737 c 0
 290 737 299 736 299 736 c 1
 299 662 l 1
 299 662 293 662 285 662 c 0
 260 662 199 653 199 557 c 2
 199 454 l 2
 199 355 118 327 118 327 c 1
 118 325 l 1
 118 325 199 301 199 198 c 2
 199 83 l 2
 199 -13 260 -22 285 -22 c 0
 293 -22 299 -22 299 -22 c 1
 299 -96 l 1
 299 -96 290 -98 276 -98 c 0
 228 -98 114 -82 114 77 c 2xe8
EndSplineSet
Substitution2: "'case' Case-Sensitive Forms in Latin lookup 0 subtable" braceleft.case
EndChar

StartChar: bar
Encoding: 124 124 92
Width: 299
Flags: MW
HStem: -159 951<107 192 107 192>
VStem: 107 85<-159 792 -159 792>
LayerCount: 2
Fore
SplineSet
107 -159 m 1
 107 792 l 1
 192 792 l 1
 192 -159 l 1
 107 -159 l 1
EndSplineSet
EndChar

StartChar: braceright
Encoding: 125 125 93
Width: 339
Flags: MW
HStem: -98 76<56 66.5 40 87> 282 86<310 310> 662 75<40 87 40 87>
VStem: 140 85<83 173 454 479 479 557 557 563> 221 89<325 327 327 327>
LayerCount: 2
Fore
SplineSet
40 -22 m 1xf0
 40 -22 45 -22 54 -22 c 0
 79 -22 140 -13 140 83 c 2
 140 198 l 2
 140 301 221 325 221 325 c 1
 221 327 l 1
 221 327 140 355 140 454 c 2
 140 557 l 2
 140 653 79 662 54 662 c 0
 45 662 40 662 40 662 c 1
 40 736 l 1
 40 736 49 737 63 737 c 0
 111 737 225 721 225 563 c 2
 225 479 l 2xf0
 225 375 310 368 310 368 c 1xe8
 310 282 l 1
 310 282 225 275 225 173 c 2
 225 77 l 2
 225 -82 111 -98 63 -98 c 0
 49 -98 40 -96 40 -96 c 1
 40 -22 l 1xf0
EndSplineSet
Substitution2: "'case' Case-Sensitive Forms in Latin lookup 0 subtable" braceright.case
EndChar

StartChar: asciitilde
Encoding: 126 126 94
Width: 613
Flags: MW
HStem: 200 75<355.5 419.5 355.5 443> 297 76<182 246>
VStem: 62 79<204 224.5 204 262> 460 79<348 369>
LayerCount: 2
Fore
SplineSet
62 204 m 1
 62 320 115 373 202 373 c 0
 307 373 318 275 393 275 c 0
 446 275 460 327 460 369 c 1
 539 369 l 1xb0
 539 252 486 200 400 200 c 0
 295 200 284 297 208 297 c 0
 156 297 141 245 141 204 c 1
 62 204 l 1
EndSplineSet
EndChar
